<?xml version="1.0" standalone="no"?>
<!DOCTYPE svg PUBLIC "-//W3C//DTD SVG 20010904//EN"
 "http://www.w3.org/TR/2001/REC-SVG-20010904/DTD/svg10.dtd">
<svg version="1.0" xmlns="http://www.w3.org/2000/svg"
 width="790.000000pt" height="790.000000pt" viewBox="0 0 790.000000 790.000000"
 preserveAspectRatio="xMidYMid meet">
<metadata>
Created by potrace 1.11, written by Peter Selinger 2001-2013
</metadata>
<g transform="translate(0.000000,790.000000) scale(0.100000,-0.100000)"
fill="#000000" stroke="none">
<path d="M4775 7363 c-275 -16 -549 -59 -815 -126 -179 -45 -384 -106 -378
-112 2 -2 39 1 83 8 44 6 184 11 310 11 249 1 364 -12 565 -61 544 -132 928
-466 1047 -908 23 -89 26 -119 27 -270 1 -187 -11 -266 -65 -430 -62 -188
-204 -443 -347 -619 -48 -60 -57 -67 -63 -50 -5 10 -34 87 -65 169 -424 1126
-1343 2020 -2339 2275 -155 40 -341 70 -423 70 -45 -1 -41 -3 68 -39 668 -223
1275 -696 1747 -1364 283 -400 510 -867 638 -1310 l43 -152 -21 -23 c-36 -39
-246 -195 -368 -274 -844 -547 -1872 -732 -2623 -471 -159 55 -349 158 -428
231 -15 14 -31 23 -34 19 -11 -11 209 -221 286 -274 675 -458 1796 -459 2878
-2 53 23 167 76 254 119 l156 78 7 -117 c34 -524 -97 -1077 -343 -1456 -141
-217 -346 -415 -544 -526 -67 -37 -33 -31 102 18 809 296 1261 1132 1179 2177
l-11 141 28 20 c250 181 381 291 555 465 672 670 899 1401 624 2005 -158 348
-487 595 -944 709 -229 58 -534 85 -786 69z"/>
<path d="M6874 4682 c-77 -27 -129 -74 -157 -142 l-14 -31 -30 50 c-38 61 -92
98 -165 113 -196 41 -373 -141 -355 -367 11 -145 85 -242 225 -295 l50 -19 16
66 c10 36 13 69 9 73 -4 4 -24 13 -43 19 -48 15 -104 63 -124 105 -23 48 -21
130 5 183 31 65 91 96 172 91 46 -3 72 -10 96 -27 46 -33 81 -111 81 -183 l0
-56 50 -11 c28 -6 54 -11 58 -11 4 0 8 33 8 73 0 84 22 136 78 185 86 76 232
66 318 -20 51 -51 68 -93 68 -168 0 -121 -69 -194 -212 -224 -30 -7 -35 -29
-21 -109 l6 -39 46 7 c193 28 313 192 298 407 -10 142 -88 257 -213 315 -74
34 -180 40 -250 15z"/>
<path d="M6289 3786 c-93 -19 -178 -86 -223 -176 -47 -93 -61 -150 -61 -260 0
-94 3 -111 28 -162 32 -65 84 -116 156 -153 28 -14 52 -25 55 -25 2 0 13 24
24 53 36 96 36 90 -13 111 -76 31 -135 119 -135 202 0 97 66 210 144 245 151
68 281 -47 431 -379 108 -242 169 -341 248 -406 55 -45 116 -72 122 -54 10 30
195 773 195 784 0 10 -120 48 -127 40 -2 -1 -35 -130 -75 -287 -39 -156 -75
-288 -79 -292 -13 -16 -70 83 -158 272 -113 240 -161 323 -232 392 -86 85
-188 117 -300 95z"/>
<path d="M1010 2287 c-129 -149 -306 -354 -392 -454 l-157 -181 54 -46 53 -46
307 355 c169 195 309 355 311 355 2 0 2 -6 -1 -12 -2 -7 -41 -253 -86 -547
l-83 -535 54 -48 c30 -27 57 -47 61 -46 13 5 774 889 776 902 2 11 -82 86 -97
86 -4 0 -144 -158 -310 -350 -167 -193 -304 -349 -305 -348 -2 2 35 248 82
547 l85 544 -53 48 c-30 27 -56 48 -59 49 -3 0 -111 -123 -240 -273z"/>
<path d="M5381 2260 c-47 -62 -51 -71 -40 -92 50 -96 603 -1038 609 -1038 7 0
100 114 100 123 0 3 -43 76 -96 162 l-95 157 52 66 c28 37 97 126 153 199 55
73 107 132 114 133 7 0 85 -20 174 -45 89 -25 167 -45 174 -45 6 0 35 30 64
67 46 60 49 68 33 75 -10 4 -277 73 -593 153 -316 80 -580 147 -586 149 -6 3
-35 -26 -63 -64z m474 -195 c94 -27 173 -51 177 -54 7 -6 -225 -313 -240 -318
-4 -2 -50 70 -102 159 -52 89 -118 194 -146 233 -28 40 -54 77 -57 82 -4 6 39
-4 96 -22 56 -18 179 -54 272 -80z"/>
<path d="M4724 1776 c-191 -44 -350 -157 -390 -280 -41 -122 -4 -250 90 -313
92 -63 171 -68 461 -33 205 25 264 19 314 -31 112 -111 19 -276 -196 -350 -78
-27 -204 -32 -264 -11 -38 13 -92 59 -126 107 l-21 30 -67 -33 -66 -32 23 -42
c34 -61 101 -123 166 -154 214 -101 608 37 713 251 20 42 24 65 24 140 0 76
-4 97 -25 139 -30 60 -87 110 -149 131 -78 27 -164 29 -341 6 -271 -35 -343
-29 -383 32 -57 87 -9 195 116 259 119 60 243 76 316 39 37 -19 101 -83 101
-101 0 -8 126 42 138 55 9 9 -49 94 -84 125 -20 17 -58 41 -83 52 -60 26 -185
32 -267 14z"/>
<path d="M2266 1724 c-91 -22 -190 -80 -279 -163 -181 -171 -264 -386 -223
-580 49 -230 227 -408 459 -458 217 -46 458 65 612 282 189 266 176 543 -35
755 -152 153 -341 211 -534 164z m228 -139 c61 -10 153 -61 206 -114 142 -142
154 -339 33 -529 -154 -243 -397 -342 -596 -244 -85 42 -162 119 -201 201 -28
60 -31 75 -30 161 0 74 5 107 22 148 34 82 92 161 181 244 90 84 163 126 243
138 53 8 68 7 142 -5z"/>
<path d="M3958 1501 l-47 -6 -258 -289 c-210 -236 -258 -285 -264 -270 -4 11
-14 131 -23 268 -9 137 -18 251 -20 254 -3 2 -37 1 -76 -3 l-72 -7 6 -57 c3
-31 20 -265 36 -521 17 -256 33 -480 36 -497 5 -36 17 -39 105 -27 l44 6 -12
167 c-6 91 -12 177 -12 191 -1 18 23 51 87 119 l88 94 213 -259 c118 -142 217
-263 221 -267 5 -5 52 -5 105 0 l98 8 -267 308 c-146 170 -266 313 -266 318 0
7 161 186 404 447 l30 32 -55 -2 c-29 0 -75 -4 -101 -7z"/>
</g>
</svg>
